SRRun01_grf
version=1
nRows=24
nColumns=19
inDegrees=no
endheader
time	ground_force_r_vx	ground_force_r_vy	ground_force_r_vz	ground_force_r_px	ground_force_r_py	ground_force_r_pz	ground_force_r_mx	ground_force_r_my	ground_force_r_mz	ground_force_l_vx	ground_force_l_vy	ground_force_l_vz	ground_force_l_px	ground_force_l_py	ground_force_l_pz	ground_force_l_mx	ground_force_l_my	ground_force_l_mz
    144.99800000	    -17.10077678	   1888.97136517	    -78.52461777	      0.83627439	      0.00000000	     -0.79011585	      0.00007418	     -3.33051660	      0.00006912	      0.00000000	      0.00000000	      0.00000000	      0.00000000	      0.00000000	      0.00000000	      0.00000000	      0.00000000	      0.00000000
    144.99900000	    -22.79011298	   1871.39915308	    -75.88267171	      0.83619285	      0.00000000	     -0.78843905	      0.00007212	     -3.55267063	      0.00006918	      0.00000000	      0.00000000	      0.00000000	      0.00000000	      0.00000000	      0.00000000	      0.00000000	      0.00000000	      0.00000000
    145.00000000	    -26.54173332	   1853.54536646	    -72.97988330	      0.83613954	      0.00000000	     -0.78669976	      0.00006960	     -4.13300891	      0.00006941	      0.00000000	      0.00000000	      0.00000000	      0.00000000	      0.00000000	      0.00000000	      0.00000000	      0.00000000	      0.00000000
    145.00100000	    -28.22746849	   1835.64490581	    -70.20260264	      0.83611848	      0.00000000	     -0.78489017	      0.00006674	     -4.98952469	      0.00006971	      0.00000000	      0.00000000	      0.00000000	      0.00000000	      0.00000000	      0.00000000	      0.00000000	      0.00000000	      0.00000000
    145.00200000	    -27.86561427	   1817.91236181	    -67.90191928	      0.83613138	      0.00000000	     -0.78300218	      0.00006371	     -5.96983222	      0.00006998	      0.00000000	      0.00000000	      0.00000000	      0.00000000	      0.00000000	      0.00000000	      0.00000000	      0.00000000	      0.00000000
    145.00300000	    -25.60494002	   1800.52179889	    -66.36470998	      0.83617767	      0.00000000	     -0.78102651	      0.00006072	     -6.87498198	      0.00007011	      0.00000000	      0.00000000	      0.00000000	      0.00000000	      0.00000000	      0.00000000	      0.00000000	      0.00000000	      0.00000000
    145.00400000	    -21.69664905	   1783.59334310	    -65.79347451	      0.83625467	      0.00000000	     -0.77895278	      0.00005801	     -7.49021487	      0.00007001	      0.00000000	      0.00000000	      0.00000000	      0.00000000	      0.00000000	      0.00000000	      0.00000000	      0.00000000	      0.00000000
    145.00500000	    -16.45850287	   1767.18796123	    -66.29630608	      0.83635810	      0.00000000	     -0.77677079	      0.00005578	     -7.61788788	      0.00006961	      0.00000000	      0.00000000	      0.00000000	      0.00000000	      0.00000000	      0.00000000	      0.00000000	      0.00000000	      0.00000000
    145.00600000	    -10.23644083	   1751.31052677	    -67.88714891	      0.83648264	      0.00000000	     -0.77447252	      0.00005420	     -7.10785980	      0.00006888	      0.00000000	      0.00000000	      0.00000000	      0.00000000	      0.00000000	      0.00000000	      0.00000000	      0.00000000	      0.00000000
    145.00700000	     -3.36926657	   1735.92001095	    -70.49539468	      0.83662255	      0.00000000	     -0.77205449	      0.00005338	     -5.88124623	      0.00006784	      0.00000000	      0.00000000	      0.00000000	      0.00000000	      0.00000000	      0.00000000	      0.00000000	      0.00000000	      0.00000000
    145.00800000	      3.83879426	   1720.94457081	    -73.98304001	      0.83677214	      0.00000000	     -0.76951990	      0.00005335	     -3.94447546	      0.00006653	      0.00000000	      0.00000000	      0.00000000	      0.00000000	      0.00000000	      0.00000000	      0.00000000	      0.00000000	      0.00000000
    145.00900000	     11.13444592	   1706.29870502	    -78.16711736	      0.83692611	      0.00000000	     -0.76687993	      0.00005403	     -1.39194770	      0.00006503	      0.00000000	      0.00000000	      0.00000000	      0.00000000	      0.00000000	      0.00000000	      0.00000000	      0.00000000	      0.00000000
    145.01000000	     18.31939552	   1691.89967418	    -82.84483591	      0.83707951	      0.00000000	     -0.76415428	      0.00005529	      1.60276298	      0.00006346	      0.00000000	      0.00000000	      0.00000000	      0.00000000	      0.00000000	      0.00000000	      0.00000000	      0.00000000	      0.00000000
    145.01100000	     25.24306292	   1677.68091479	    -87.81874677	      0.83722756	      0.00000000	     -0.76137061	      0.00005694	      4.80558097	      0.00006193	      0.00000000	      0.00000000	      0.00000000	      0.00000000	      0.00000000	      0.00000000	      0.00000000	      0.00000000	      0.00000000
    145.01200000	     31.78673363	   1663.60094117	    -92.91932550	      0.83736517	      0.00000000	     -0.75856319	      0.00005874	      7.94761808	      0.00006055	      0.00000000	      0.00000000	      0.00000000	      0.00000000	      0.00000000	      0.00000000	      0.00000000	      0.00000000	      0.00000000
    145.01300000	     37.84339685	   1649.64699398	    -98.02272751	      0.83748646	      0.00000000	     -0.75577087	      0.00006047	     10.75435036	      0.00005942	      0.00000000	      0.00000000	      0.00000000	      0.00000000	      0.00000000	      0.00000000	      0.00000000	      0.00000000	      0.00000000
    145.01400000	     43.29826350	   1635.83334055	   -103.06206137	      0.83758430	      0.00000000	     -0.75303444	      0.00006192	     12.97465927	      0.00005860	      0.00000000	      0.00000000	      0.00000000	      0.00000000	      0.00000000	      0.00000000	      0.00000000	      0.00000000	      0.00000000
    145.01500000	     48.01484150	   1622.19465921	   -108.03117463	      0.83765024	      0.00000000	     -0.75039360	      0.00006294	     14.40642466	      0.00005811	      0.00000000	      0.00000000	      0.00000000	      0.00000000	      0.00000000	      0.00000000	      0.00000000	      0.00000000	      0.00000000
    145.01600000	     51.83039374	   1608.77542930	   -112.98056089	      0.83767484	      0.00000000	     -0.74788364	      0.00006343	     14.91595599	      0.00005795	      0.00000000	      0.00000000	      0.00000000	      0.00000000	      0.00000000	      0.00000000	      0.00000000	      0.00000000	      0.00000000
    145.01700000	     54.56277451	   1595.61679784	   -118.00564325	      0.83764832	      0.00000000	     -0.74553201	      0.00006336	     14.44940985	      0.00005808	      0.00000000	      0.00000000	      0.00000000	      0.00000000	      0.00000000	      0.00000000	      0.00000000	      0.00000000	      0.00000000
    145.01800000	     56.02842960	   1582.74294405	   -123.22847933	      0.83756162	      0.00000000	     -0.74335518	      0.00006276	     13.03542543	      0.00005844	      0.00000000	      0.00000000	      0.00000000	      0.00000000	      0.00000000	      0.00000000	      0.00000000	      0.00000000	      0.00000000
    145.01900000	     56.06923240	   1570.14923842	   -128.77484375	      0.83740740	      0.00000000	     -0.74135585	      0.00006168	     10.77936309	      0.00005893	      0.00000000	      0.00000000	      0.00000000	      0.00000000	      0.00000000	      0.00000000	      0.00000000	      0.00000000	      0.00000000
    145.02000000	     54.58414463	   1557.79424299	   -134.74948973	      0.83718120	      0.00000000	     -0.73952088	      0.00006019	      7.85052993	      0.00005948	      0.00000000	      0.00000000	      0.00000000	      0.00000000	      0.00000000	      0.00000000	      0.00000000	      0.00000000	      0.00000000
    145.02100000	     51.56058032	   1545.59686831	   -141.21294839	      0.83688246	      0.00000000	     -0.73782032	      0.00005838	      4.46444623	      0.00006001	      0.00000000	      0.00000000	      0.00000000	      0.00000000	      0.00000000	      0.00000000	      0.00000000	      0.00000000	      0.00000000
